<svg xmlns="http://www.w3.org/2000/svg" width="35.321" height="46.607" viewBox="0 0 35.321 46.607"><g transform="translate(-2265.364 -1432.385)" opacity="0.29"><path d="M239.992,58.251c.241.81-.12,1.434-.81,1.39a2.189,2.189,0,0,1-1.7-1.522c-.241-.81.131-1.434.821-1.379A2.19,2.19,0,0,1,239.992,58.251Z" transform="translate(2048.426 1419.063)" fill="#009c49"/><path d="M236.347,58.526c.252.81-.1,1.434-.8,1.379a2.189,2.189,0,0,1-1.7-1.565c-.241-.81.109-1.434.8-1.379A2.189,2.189,0,0,1,236.347,58.526Z" transform="translate(2056.044 1419.084)" fill="#009c49"/><path d="M244.809,53.824c.23.8-.131,1.423-.821,1.368a2.124,2.124,0,0,1-1.653-1.544c-.23-.8.142-1.412.821-1.368a2.19,2.19,0,0,1,1.653,1.544Z" transform="translate(2038.3 1418.641)" fill="#009c49"/><path d="M241.22,54.074c.241.81-.109,1.423-.8,1.368a2.189,2.189,0,0,1-1.675-1.544c-.241-.81.12-1.412.8-1.368A2.189,2.189,0,0,1,241.22,54.074Z" transform="translate(2045.819 1418.664)" fill="#009c49"/><path d="M237.615,54.338c.252.81-.1,1.423-.777,1.368a2.189,2.189,0,0,1-1.686-1.587c-.241-.81.109-1.412.777-1.368A2.189,2.189,0,0,1,237.615,54.338Z" transform="translate(2053.354 1418.685)" fill="#009c49"/><path d="M249.532,49.442c.23.8-.142,1.4-.821,1.357a2.069,2.069,0,0,1-1.62-1.522c-.219-.8.153-1.4.821-1.357a2.08,2.08,0,0,1,1.62,1.522Z" transform="translate(2028.366 1418.228)" fill="#009c49"/><path d="M245.986,49.692c.23.8-.12,1.4-.8,1.357a2.113,2.113,0,0,1-1.642-1.522c-.23-.8.131-1.4.8-1.357A2.124,2.124,0,0,1,245.986,49.692Z" transform="translate(2035.798 1418.251)" fill="#009c49"/><path d="M242.448,49.933c.241.8-.109,1.4-.788,1.357a2.189,2.189,0,0,1-1.653-1.533c-.241-.8.109-1.4.788-1.357a2.189,2.189,0,0,1,1.653,1.533Z" transform="translate(2043.212 1418.273)" fill="#009c49"/><path d="M238.893,50.192c.252.8-.088,1.4-.766,1.357a2.189,2.189,0,0,1-1.675-1.533c-.241-.8.1-1.4.766-1.347A2.19,2.19,0,0,1,238.893,50.192Z" transform="translate(2050.653 1418.298)" fill="#009c49"/><path d="M235.344,50.463c.263.8-.077,1.4-.744,1.357a2.19,2.19,0,0,1-1.686-1.544c-.252-.8.077-1.4.744-1.347A2.189,2.189,0,0,1,235.344,50.463Z" transform="translate(2058.077 1418.323)" fill="#009c49"/><path d="M231.8,50.733c.274.8-.055,1.4-.733,1.357a2.266,2.266,0,0,1-1.7-1.544c-.263-.8.066-1.4.733-1.347A2.277,2.277,0,0,1,231.8,50.733Z" transform="translate(2065.494 1418.349)" fill="#009c49"/><path d="M257.668,44.918c.208.777-.164,1.39-.832,1.347a1.97,1.97,0,0,1-1.576-1.489c-.2-.777.175-1.379.843-1.336a1.981,1.981,0,0,1,1.566,1.478Z" transform="translate(2011.285 1417.803)" fill="#009c49"/><path d="M254.214,45.128c.219.788-.153,1.39-.821,1.347a2.014,2.014,0,0,1-1.642-1.489c-.208-.788.153-1.379.821-1.336A2.025,2.025,0,0,1,254.214,45.128Z" transform="translate(2018.582 1417.823)" fill="#009c49"/><path d="M250.659,45.369c.23.788-.131,1.39-.8,1.347a2.047,2.047,0,0,1-1.609-1.5c-.219-.788.142-1.379.8-1.336a2.058,2.058,0,0,1,1.609,1.489Z" transform="translate(2025.969 1417.845)" fill="#009c49"/><path d="M247.165,45.6c.23.788-.12,1.39-.788,1.347a2.091,2.091,0,0,1-1.62-1.5c-.23-.788.12-1.379.788-1.336a2.1,2.1,0,0,1,1.62,1.489Z" transform="translate(2033.295 1417.867)" fill="#009c49"/><path d="M243.664,45.85c.241.788-.1,1.39-.766,1.347a2.189,2.189,0,0,1-1.642-1.511c-.241-.788.109-1.379.766-1.336A2.189,2.189,0,0,1,243.664,45.85Z" transform="translate(2040.627 1417.889)" fill="#009c49"/><path d="M240.161,46.131c.252.788-.088,1.39-.755,1.336a2.19,2.19,0,0,1-1.653-1.511c-.241-.788.088-1.379.755-1.336A2.189,2.189,0,0,1,240.161,46.131Z" transform="translate(2047.961 1417.915)" fill="#009c49"/><path d="M236.659,46.362c.263.788-.066,1.39-.733,1.336a2.189,2.189,0,0,1-1.664-1.522c-.252-.788.077-1.379.733-1.336A2.19,2.19,0,0,1,236.659,46.362Z" transform="translate(2055.283 1417.936)" fill="#009c49"/><path d="M233.208,46.632c.274.788,0,1.39-.723,1.336a2.255,2.255,0,0,1-1.719-1.522c-.263-.788.055-1.39.723-1.336a2.266,2.266,0,0,1,1.719,1.522Z" transform="translate(2062.555 1417.961)" fill="#009c49"/><path d="M258.7,40.907c.208.777-.164,1.368-.821,1.325a1.96,1.96,0,0,1-1.555-1.467c-.2-.766.164-1.357.821-1.325a1.96,1.96,0,0,1,1.555,1.467Z" transform="translate(2009.097 1417.424)" fill="#009c49"/><path d="M255.2,41.128c.219.777-.142,1.368-.8,1.325a1.992,1.992,0,0,1-1.544-1.478c-.208-.777.153-1.357.81-1.325a2,2,0,0,1,1.533,1.478Z" transform="translate(2016.378 1417.444)" fill="#009c49"/><path d="M251.787,41.348c.23.777-.131,1.368-.788,1.325a2.025,2.025,0,0,1-1.587-1.478c-.219-.777.131-1.368.788-1.325a2.036,2.036,0,0,1,1.587,1.478Z" transform="translate(2023.57 1417.465)" fill="#009c49"/><path d="M248.381,41.579c.23.777-.109,1.368-.766,1.325a2.069,2.069,0,0,1-1.609-1.489c-.23-.777.12-1.368.766-1.325A2.08,2.08,0,0,1,248.381,41.579Z" transform="translate(2030.71 1417.486)" fill="#009c49"/><path d="M244.882,41.809c.241.777-.1,1.368-.755,1.325a2.113,2.113,0,0,1-1.62-1.489c-.241-.777.1-1.368.755-1.325a2.124,2.124,0,0,1,1.62,1.489Z" transform="translate(2038.04 1417.508)" fill="#009c49"/><path d="M241.416,42.059c.252.777-.077,1.368-.733,1.325a2.189,2.189,0,0,1-1.631-1.5c-.241-.777.088-1.368.733-1.314A2.19,2.19,0,0,1,241.416,42.059Z" transform="translate(2045.283 1417.531)" fill="#009c49"/><path d="M237.979,42.322c.263.777-.066,1.368-.723,1.325a2.189,2.189,0,0,1-1.653-1.533c-.252-.777.066-1.368.723-1.314A2.189,2.189,0,0,1,237.979,42.322Z" transform="translate(2052.497 1417.553)" fill="#009c49"/><path d="M231.095,42.85c.274.777,0,1.379-.69,1.325a2.277,2.277,0,0,1-1.686-1.511c-.274-.777,0-1.368.69-1.314a2.288,2.288,0,0,1,1.686,1.5Z" transform="translate(2066.924 1417.605)" fill="#009c49"/><path d="M256.344,37.125c.219.766-.142,1.347-.788,1.314A1.97,1.97,0,0,1,254,36.983c-.208-.766.142-1.347.788-1.3a1.981,1.981,0,0,1,1.555,1.445Z" transform="translate(2013.989 1417.068)" fill="#009c49"/><path d="M252.907,37.375c.219.766-.12,1.347-.777,1.314a2.014,2.014,0,0,1-1.565-1.456c-.219-.766.131-1.347.777-1.3a2.014,2.014,0,0,1,1.565,1.445Z" transform="translate(2021.192 1417.092)" fill="#009c49"/><path d="M249.509,37.6c.23.766-.109,1.347-.755,1.314a2.047,2.047,0,0,1-1.587-1.467c-.23-.766.109-1.347.755-1.3a2.058,2.058,0,0,1,1.587,1.456Z" transform="translate(2028.312 1417.112)" fill="#009c49"/><path d="M246.083,37.827c.241.766-.088,1.357-.733,1.3a2.091,2.091,0,0,1-1.6-1.467c-.23-.766.1-1.347.733-1.3a2.1,2.1,0,0,1,1.6,1.467Z" transform="translate(2035.471 1417.132)" fill="#009c49"/><path d="M242.7,38.068c.252.766-.077,1.357-.723,1.3a2.124,2.124,0,0,1-1.62-1.478c-.241-.766.077-1.347.723-1.3a2.189,2.189,0,0,1,1.62,1.478Z" transform="translate(2042.581 1417.154)" fill="#009c49"/><path d="M239.285,38.321c.263.766-.055,1.357-.7,1.3a2.189,2.189,0,0,1-1.642-1.511c-.252-.766.066-1.347.7-1.3A2.189,2.189,0,0,1,239.285,38.321Z" transform="translate(2049.724 1417.175)" fill="#009c49"/><path d="M235.887,38.579c.274.766,0,1.357-.69,1.3a2.189,2.189,0,0,1-1.653-1.489c-.263-.766,0-1.347.69-1.3A2.189,2.189,0,0,1,235.887,38.579Z" transform="translate(2056.844 1417.202)" fill="#009c49"/><path d="M232.481,38.839c.274.766,0,1.357-.668,1.3a2.255,2.255,0,0,1-1.664-1.489c-.274-.766,0-1.347.668-1.3A2.255,2.255,0,0,1,232.481,38.839Z" transform="translate(2063.972 1417.226)" fill="#009c49"/><path d="M229.1,39.13c.285.777,0,1.357-.657,1.3a2.3,2.3,0,0,1-1.686-1.5c-.285-.766,0-1.357.657-1.3a2.3,2.3,0,0,1,1.686,1.5Z" transform="translate(2071.062 1417.253)" fill="#009c49"/><path d="M257.38,33.243c.219.755-.131,1.336-.777,1.292A1.949,1.949,0,0,1,255.07,33.1c-.208-.755.142-1.325.777-1.281a1.96,1.96,0,0,1,1.533,1.423Z" transform="translate(2011.781 1416.702)" fill="#009c49"/><path d="M254.026,33.453c.219.755-.12,1.336-.755,1.292a1.992,1.992,0,0,1-1.555-1.434c-.219-.755.12-1.325.755-1.281a1.992,1.992,0,0,1,1.555,1.423Z" transform="translate(2018.814 1416.722)" fill="#009c49"/><path d="M250.665,33.674c.23.755-.1,1.336-.744,1.292a2.025,2.025,0,0,1-1.565-1.445c-.23-.755.109-1.325.744-1.281a2.036,2.036,0,0,1,1.565,1.434Z" transform="translate(2025.853 1416.742)" fill="#009c49"/><path d="M247.312,33.9c.241.755-.088,1.336-.723,1.292A2.069,2.069,0,0,1,245,33.751c-.23-.755.088-1.325.723-1.281a2.069,2.069,0,0,1,1.587,1.434Z" transform="translate(2032.873 1416.764)" fill="#009c49"/><path d="M243.952,34.125c.252.755-.066,1.336-.712,1.292a2.1,2.1,0,0,1-1.6-1.456c-.241-.755.077-1.325.712-1.281A2.113,2.113,0,0,1,243.952,34.125Z" transform="translate(2039.912 1416.784)" fill="#009c49"/><path d="M240.586,34.375c.263.755,0,1.336-.69,1.292a2.189,2.189,0,0,1-1.62-1.456c-.252-.755.055-1.325.69-1.281a2.189,2.189,0,0,1,1.62,1.445Z" transform="translate(2046.956 1416.807)" fill="#009c49"/><path d="M237.2,34.626c.263.755,0,1.336-.679,1.292a2.189,2.189,0,0,1-1.587-1.467c-.263-.755,0-1.336.679-1.281A2.189,2.189,0,0,1,237.2,34.626Z" transform="translate(2054.005 1416.83)" fill="#009c49"/><path d="M233.889,34.886c.274.755,0,1.336-.657,1.292a2.189,2.189,0,0,1-1.653-1.467c-.274-.755,0-1.336.657-1.281a2.189,2.189,0,0,1,1.653,1.456Z" transform="translate(2060.999 1416.855)" fill="#009c49"/><path d="M230.535,35.127c.285.766,0,1.347-.646,1.292a2.266,2.266,0,0,1-1.664-1.478c-.274-.766,0-1.336.646-1.281a2.277,2.277,0,0,1,1.664,1.467Z" transform="translate(2068.021 1416.876)" fill="#009c49"/><path d="M258.452,29.4c.208.744-.131,1.314-.755,1.27a1.927,1.927,0,0,1-1.522-1.412c-.208-.733.131-1.3.755-1.27a1.938,1.938,0,0,1,1.522,1.412Z" transform="translate(2009.505 1416.34)" fill="#009c49"/><path d="M255.142,29.6c.219.744-.109,1.314-.744,1.27a1.96,1.96,0,0,1-1.533-1.412c-.219-.744.12-1.3.744-1.27a1.97,1.97,0,0,1,1.533,1.412Z" transform="translate(2016.439 1416.359)" fill="#009c49"/><path d="M251.833,29.813c.23.744-.1,1.314-.723,1.27a2,2,0,0,1-1.555-1.423c-.23-.744.1-1.3.723-1.27a2.014,2.014,0,0,1,1.555,1.423Z" transform="translate(2023.371 1416.377)" fill="#009c49"/><path d="M248.508,30.033c.241.744-.077,1.314-.712,1.27a2.036,2.036,0,0,1-1.566-1.423c-.23-.744.088-1.3.712-1.27a2.047,2.047,0,0,1,1.565,1.423Z" transform="translate(2030.331 1416.398)" fill="#009c49"/><path d="M245.2,30.252c.252.744-.066,1.314-.69,1.27a2.08,2.08,0,0,1-1.587-1.412c-.241-.744.066-1.314.69-1.27a2.091,2.091,0,0,1,1.587,1.412Z" transform="translate(2037.263 1416.42)" fill="#009c49"/><path d="M241.891,30.494c.263.744,0,1.314-.679,1.27a2.124,2.124,0,0,1-1.6-1.434c-.252-.744,0-1.314.679-1.27a2.189,2.189,0,0,1,1.6,1.434Z" transform="translate(2044.195 1416.441)" fill="#009c49"/><path d="M238.575,30.735c.263.744,0,1.325-.657,1.27a2.189,2.189,0,0,1-1.609-1.445c-.263-.744,0-1.314.657-1.27A2.19,2.19,0,0,1,238.575,30.735Z" transform="translate(2051.135 1416.463)" fill="#009c49"/><path d="M235.286,30.985c.274.744,0,1.325-.646,1.27a2.189,2.189,0,0,1-1.631-1.445c-.274-.744,0-1.314.646-1.27a2.189,2.189,0,0,1,1.631,1.445Z" transform="translate(2058.036 1416.486)" fill="#009c49"/><path d="M231.961,31.246c.285.755,0,1.325-.624,1.27a2.244,2.244,0,0,1-1.642-1.456c-.274-.744,0-1.314.624-1.27a2.255,2.255,0,0,1,1.642,1.456Z" transform="translate(2064.985 1416.51)" fill="#009c49"/><path d="M228.662,31.506c.3.755,0,1.325-.613,1.27a2.288,2.288,0,0,1-1.664-1.456c-.285-.755,0-1.314.613-1.27a2.3,2.3,0,0,1,1.664,1.456Z" transform="translate(2071.907 1416.535)" fill="#009c49"/><path d="M256.261,25.81c.219.733-.109,1.292-.733,1.248a1.938,1.938,0,0,1-1.522-1.39c-.219-.723.109-1.281.733-1.248a1.949,1.949,0,0,1,1.522,1.39Z" transform="translate(2014.072 1416.001)" fill="#009c49"/><path d="M252.975,26.01c.23.733-.088,1.292-.712,1.248a1.981,1.981,0,0,1-1.533-1.39c-.219-.733.1-1.281.712-1.248a1.981,1.981,0,0,1,1.533,1.39Z" transform="translate(2020.938 1416.02)" fill="#009c49"/><path d="M249.717,26.218c.241.733-.077,1.292-.7,1.248a2.014,2.014,0,0,1-1.544-1.357c-.23-.733.077-1.292.7-1.248a2.025,2.025,0,0,1,1.544,1.357Z" transform="translate(2027.765 1416.043)" fill="#009c49"/><path d="M246.446,26.441c.252.733-.055,1.292-.679,1.259a2.058,2.058,0,0,1-1.565-1.4c-.241-.733.066-1.292.679-1.248a2.058,2.058,0,0,1,1.565,1.39Z" transform="translate(2034.615 1416.061)" fill="#009c49"/><path d="M243.2,26.672c.252.733,0,1.3-.668,1.259a2.1,2.1,0,0,1-1.587-1.423c-.252-.733,0-1.292.668-1.248a2.1,2.1,0,0,1,1.587,1.412Z" transform="translate(2041.427 1416.081)" fill="#009c49"/><path d="M239.923,26.9c.263.733,0,1.3-.646,1.259a2.189,2.189,0,0,1-1.6-1.412c-.263-.733,0-1.292.646-1.248a2.189,2.189,0,0,1,1.6,1.4Z" transform="translate(2048.287 1416.104)" fill="#009c49"/><path d="M236.659,27.122c.274.733,0,1.3-.635,1.259a2.189,2.189,0,0,1-1.609-1.423c-.263-.733,0-1.292.635-1.248A2.189,2.189,0,0,1,236.659,27.122Z" transform="translate(2055.12 1416.124)" fill="#009c49"/><path d="M233.389,27.392c.285.744,0,1.3-.613,1.259a2.189,2.189,0,0,1-1.631-1.423c-.274-.733,0-1.292.613-1.248a2.189,2.189,0,0,1,1.631,1.412Z" transform="translate(2061.969 1416.149)" fill="#009c49"/><path d="M230.13,27.643c.3.744,0,1.3-.6,1.259a2.266,2.266,0,0,1-1.642-1.434c-.285-.744,0-1.3.6-1.248a2.266,2.266,0,0,1,1.642,1.423Z" transform="translate(2068.798 1416.172)" fill="#009c49"/><path d="M257.342,22.118c.219.712-.1,1.27-.712,1.237a1.916,1.916,0,0,1-1.5-1.368c-.208-.712.109-1.259.712-1.226A1.916,1.916,0,0,1,257.342,22.118Z" transform="translate(2011.754 1415.655)" fill="#009c49"/><path d="M254.134,22.27c.23.723-.088,1.27-.7,1.237a1.949,1.949,0,0,1-1.522-1.4c-.219-.712.088-1.259.7-1.226a1.96,1.96,0,0,1,1.522,1.39Z" transform="translate(2018.487 1415.666)" fill="#009c49"/><path d="M250.9,22.479c.241.723-.066,1.27-.679,1.237a1.992,1.992,0,0,1-1.533-1.379c-.23-.723.077-1.27.679-1.226A1.992,1.992,0,0,1,250.9,22.479Z" transform="translate(2025.243 1415.688)" fill="#009c49"/><path d="M241.22,23.12c.263.723,0,1.281-.635,1.237a2.113,2.113,0,0,1-1.576-1.39c-.263-.723,0-1.27.635-1.226a2.113,2.113,0,0,1,1.576,1.379Z" transform="translate(2045.534 1415.747)" fill="#009c49"/><path d="M238.047,23.361c.274.723,0,1.281-.624,1.237a2.189,2.189,0,0,1-1.6-1.4c-.263-.723,0-1.27.624-1.226a2.19,2.19,0,0,1,1.6,1.39Z" transform="translate(2052.188 1415.769)" fill="#009c49"/><path d="M234.816,23.6c.285.723,0,1.281-.6,1.237a2.189,2.189,0,0,1-1.609-1.4c-.274-.723,0-1.281.6-1.226A2.189,2.189,0,0,1,234.816,23.6Z" transform="translate(2058.944 1415.792)" fill="#009c49"/><path d="M258.44,18.4c.219.7-.1,1.248-.7,1.215a1.883,1.883,0,0,1-1.478-1.336c-.208-.7.1-1.237.7-1.2A1.894,1.894,0,0,1,258.44,18.4Z" transform="translate(2009.419 1415.306)" fill="#009c49"/><path d="M255.28,18.6c.23.7-.077,1.248-.69,1.215a1.927,1.927,0,0,1-1.5-1.347c-.219-.7.088-1.237.69-1.2A1.927,1.927,0,0,1,255.28,18.6Z" transform="translate(2016.049 1415.323)" fill="#009c49"/></g></svg>